<svg display="none" xmlns="http://www.w3.org/2000/svg">

    <symbol id="logo" viewBox="0 0 144 46">
        <path d="M51.1906 0.0895023C48.2612 0.423613 45.7434 1.12763 43.4643 2.24929C41.7162 3.10844 40.8511 3.78859 40.5647 4.51648C40.3678 5.02958 40.332 6.04385 40.505 6.52711C40.7377 7.19534 41.0957 7.48172 41.7042 7.48172C42.1159 7.48769 42.277 7.42206 43.166 6.88509C45.6897 5.38159 48.5177 4.42698 51.4173 4.11674C52.6643 3.97952 53.2192 3.97355 54.2513 4.06304C57.4612 4.34346 59.6627 5.57251 60.9992 7.83373C62.0075 9.53412 62.3595 11.9326 62.0492 14.9038C61.4765 20.3331 58.8513 24.1396 54.7406 25.4939C53.076 26.0488 51.7574 26.2158 49.4485 26.18C48.5356 26.1681 47.7719 26.1383 47.754 26.1144C47.7123 26.0726 47.8495 24.7004 48.0643 23.0597C48.6609 18.4716 49.699 13.3764 50.6954 10.1427C51.2383 8.37666 51.1011 7.83969 50.0272 7.52945C49.4485 7.35643 48.9294 7.32063 48.2791 7.39819C46.9963 7.55331 46.4594 7.84566 46.0954 8.56161C45.7732 9.20597 44.1981 16.0732 43.7089 18.9728C43.4643 20.3987 43.5001 20.3032 43.3688 19.9512C43.3032 19.7842 43.1779 19.5754 43.0824 19.4859C42.814 19.2234 42.5335 19.2234 41.4895 19.4739C40.6124 19.6828 39.2163 19.9393 38.5421 20.0109L38.214 20.0467L38.1006 19.4441C37.7904 17.7199 36.9073 16.0135 35.8394 15.0768C34.0137 13.4778 31.1678 13.2392 28.6679 14.4861C28.0474 14.7964 27.594 15.1245 27.0033 15.6913C25.2194 17.4036 24.3424 19.5634 24.2409 22.463C24.2051 23.6384 24.3006 24.4498 24.587 25.4402C25.118 27.2361 26.3172 28.7813 27.7431 29.5032C28.7932 30.0342 29.6822 30.2132 31.0067 30.1774C31.8479 30.1536 32.021 30.1297 32.6057 29.9567C34.5805 29.372 36.2093 27.9103 37.1878 25.84C37.4503 25.2791 37.8858 24.0322 37.8858 23.8353C37.8858 23.7876 38.0767 23.7518 38.5003 23.7219C39.6817 23.6384 40.9585 23.4057 42.1219 23.0537C42.6051 22.9045 42.8975 22.7494 43.0645 22.5525C43.1302 22.475 43.1421 22.4929 43.1123 22.6599C43.0944 22.7673 43.0109 23.3878 42.9273 24.0322C42.4023 28.2086 42.4858 28.9365 43.5538 29.4734C44.0192 29.7061 44.5144 29.8195 45.6718 29.9507C47.8495 30.2013 49.8661 30.261 51.6083 30.1297C54.126 29.9388 56.8884 29.199 58.9169 28.1787C61.4228 26.9199 63.9346 24.4498 65.2651 21.944C66.7149 19.2174 67.5382 15.0947 67.3115 11.7416C67.043 7.7681 65.629 4.82673 63.0158 2.79222C61.6197 1.7004 60.3011 1.06797 58.38 0.566803C56.8586 0.167063 55.898 0.0537033 53.7859 0.0298386C52.4614 0.01194 51.7276 0.0298386 51.1906 0.0895023ZM31.9613 17.6125C31.8062 18.5014 31.8957 19.4799 32.2179 20.4405C32.5579 21.4428 33.1784 22.3139 33.96 22.8807L34.1271 23L34.0077 23.4475C33.7691 24.3901 33.4588 25.0405 33.0114 25.5357C32.2596 26.3769 31.1976 26.6633 30.3444 26.2516C29.1631 25.6908 28.5605 24.2112 28.656 22.117C28.7455 20.1601 29.3123 18.752 30.3086 18.0003C30.7323 17.6781 31.3468 17.4514 31.8539 17.4275C31.9792 17.4215 31.9911 17.4394 31.9613 17.6125Z"/>
        <path d="M104.44 0.393784C99.6845 0.60857 96.1405 1.81376 92.8949 4.32556C91.463 5.43529 89.7745 7.2908 88.7901 8.83607C87.1195 11.4732 85.9501 15.1484 85.7294 18.4656C85.6936 18.9907 85.6458 19.4739 85.616 19.5455C85.5862 19.6231 85.4967 19.6828 85.3654 19.7066C83.6352 20.0049 83.1102 20.0646 83.0863 19.9691C83.0744 19.9274 83.0147 19.6291 82.961 19.3009C82.6567 17.5886 81.7857 15.9837 80.6342 14.9992C78.4744 13.1616 74.8529 13.275 72.3589 15.2677C71.112 16.2581 70.0977 17.8034 69.5966 19.4739C68.7255 22.3855 69.0536 25.4999 70.4438 27.4986C71.464 28.9663 72.7348 29.7956 74.4233 30.0999C74.8767 30.1834 75.2108 30.2013 75.9387 30.1774C76.7621 30.1476 76.947 30.1237 77.478 29.9627C79.5125 29.3481 81.1174 27.8983 82.1078 25.7803C82.3286 25.303 82.8119 23.9367 82.8119 23.7816C82.8119 23.7697 83.0744 23.7458 83.3906 23.7219C84.0588 23.6742 85.0671 23.537 85.5862 23.4177C85.7771 23.3699 85.9501 23.3401 85.9621 23.352C85.974 23.364 86.0456 23.6086 86.1232 23.895C86.5826 25.5715 87.3761 26.896 88.635 28.1012C89.7327 29.1512 90.9499 29.7538 92.6264 30.0701C93.2469 30.1834 93.4796 30.2013 94.3864 30.1774C95.5618 30.1416 96.1346 30.0402 97.0713 29.6822C98.7896 29.026 100.305 27.5821 101.456 25.4999L101.767 24.9391L101.874 25.4343C102.029 26.1442 102.381 27.0392 102.727 27.6239C103.449 28.841 104.458 29.6047 105.872 29.9925C106.605 30.1953 108.228 30.255 109.028 30.1058C109.314 30.0462 109.565 30.0164 109.577 30.0283C109.594 30.0402 109.439 30.4519 109.242 30.9411C108.258 33.3515 107.584 35.6903 107.208 38.0052C106.969 39.4729 106.904 41.3403 107.059 42.3009C107.238 43.4047 107.644 44.4368 108.091 44.932C108.407 45.2841 108.944 45.6301 109.439 45.8031C109.809 45.9344 109.976 45.9582 110.615 45.9582C111.45 45.9642 111.796 45.8867 112.464 45.5466C113.389 45.0812 114.218 44.1206 114.887 42.7484C115.96 40.5349 116.885 36.4122 117.333 31.854L117.5 30.2073L118.037 30.1655C118.968 30.0999 120.071 29.7538 121.109 29.199L121.611 28.9245L121.885 29.193C122.237 29.5271 122.708 29.8075 123.233 29.9985C123.794 30.1953 125.065 30.249 125.835 30.1058C126.115 30.0522 126.36 30.0104 126.378 30.0104C126.396 30.0104 126.312 30.2431 126.187 30.5295C125.155 32.9398 124.325 35.7917 123.943 38.2439C123.806 39.1388 123.782 39.4848 123.776 40.6304C123.77 42.0682 123.818 42.4918 124.081 43.3748C124.462 44.6695 125.125 45.4213 126.205 45.8031C126.569 45.9344 126.748 45.9582 127.38 45.9642C128.239 45.9702 128.681 45.8628 129.379 45.4809C129.886 45.2005 130.602 44.5025 131.025 43.876C132.41 41.8236 133.543 37.4623 134.092 32.0986C134.176 31.2931 134.241 30.5414 134.241 30.4221V30.2073L134.766 30.1715C135.786 30.0939 137.189 29.6106 138.197 28.9902C139.563 28.1429 140.852 26.8065 141.806 25.2374C142.457 24.1694 143 22.7077 143.256 21.3295C143.453 20.2734 143.453 18.5492 143.256 17.6662C143.006 16.5266 142.576 15.6317 141.973 14.9873C140.732 13.6628 139.008 13.3167 137.171 14.0267C136.526 14.2713 135.685 14.8978 134.993 15.6436L134.48 16.1985V15.566C134.48 14.8501 134.396 14.331 134.241 14.0148C134.068 13.6807 133.645 13.5196 132.958 13.5256C131.664 13.5375 130.649 14.0327 130.268 14.8441L130.107 15.1842L130.118 19.0086L130.13 22.833L129.88 23.2446C129.743 23.4713 129.397 23.9129 129.104 24.2231C127.517 25.9474 126.27 26.538 124.88 26.2158L124.468 26.1263L124.862 25.4879C125.584 24.3066 126.055 23.1671 126.336 21.9261C126.592 20.7627 126.694 19.8021 126.64 18.9191C126.455 15.8285 124.85 13.8239 122.452 13.6807C121.587 13.633 120.781 13.806 119.952 14.2176C119.564 14.4145 118.783 15.0529 118.228 15.6317L117.715 16.1746V15.6317C117.715 13.9611 117.386 13.5136 116.163 13.5256C114.881 13.5315 113.902 14.0208 113.496 14.8501L113.329 15.1842L113.353 18.9847L113.371 22.7912L113.127 23.2029C112.876 23.6324 112.059 24.5035 111.402 25.0464C110.591 25.7147 109.481 26.0965 108.729 25.9712C106.665 25.6132 106.343 23.4236 107.429 16.9741C107.757 15.0231 108.598 11.0973 109.159 8.94942C109.618 7.16551 108.926 6.40779 106.826 6.41376C105.514 6.41972 104.851 6.71207 104.499 7.42206C104.392 7.64281 104.225 8.317 103.962 9.58185C102.393 17.171 101.039 21.1863 99.2012 23.7339C97.5724 25.9832 94.7922 26.723 92.9486 25.3925C92.4951 25.0643 91.9641 24.4617 91.7136 23.9964C91.0334 22.7196 90.7232 20.8283 90.8663 18.8236C91.0632 16.0672 91.6897 13.6151 92.7159 11.6044C93.6944 9.68328 95.1859 7.94709 96.9221 6.70014C98.0259 5.90662 99.8337 5.15487 101.397 4.8327C103.777 4.34346 105.901 4.39119 108.825 4.99975C110.442 5.33983 111.116 5.36966 111.581 5.14294C112.673 4.60598 113.371 2.98912 112.906 2.07031C112.667 1.60494 112.411 1.45578 111.366 1.16343C109.469 0.644367 106.408 0.304291 104.44 0.393784ZM121.121 17.3141C121.73 17.517 122.064 18.0241 122.195 18.9191C122.261 19.3606 122.255 19.5515 122.165 20.2734C121.766 23.5429 120.065 26.0488 117.78 26.7588L117.637 26.8005L117.673 25.4999C117.697 24.778 117.715 23.2208 117.715 22.0335V19.8796L118.084 19.3785C118.866 18.3224 119.725 17.523 120.31 17.3141C120.549 17.2306 120.877 17.2306 121.121 17.3141ZM137.934 17.332C138.793 17.6304 139.128 18.573 138.96 20.178C138.871 21.0073 138.573 22.2483 138.304 22.9046C137.725 24.2947 136.777 25.5237 135.769 26.186C135.363 26.4485 134.504 26.8423 134.462 26.7826C134.456 26.7707 134.456 25.2135 134.468 23.3222L134.492 19.8916L134.891 19.3427C135.619 18.3523 136.449 17.5886 137.045 17.3559C137.379 17.2247 137.612 17.2187 137.934 17.332ZM76.8038 18.1494C76.7621 18.9847 76.8277 19.4978 77.0842 20.3152C77.3706 21.2638 77.7405 21.8426 78.5161 22.5764L79.0054 23.0358L78.8801 23.5549C78.6892 24.3365 78.2238 25.2493 77.7942 25.661C77.299 26.1502 76.774 26.3948 76.1714 26.4247C75.6285 26.4485 75.3063 26.3531 74.8529 26.0249C73.9698 25.3865 73.5462 24.2231 73.5462 22.463C73.5522 20.5717 73.9877 19.1995 74.8827 18.2986C75.4018 17.7736 76.064 17.4573 76.7084 17.4275C76.8456 17.4215 76.8456 17.4215 76.8038 18.1494ZM113.276 29.2765C112.953 36.0483 112.417 40.171 111.647 41.7998C111.492 42.1279 111.349 42.3069 111.128 42.4501C110.943 42.5754 110.728 42.4799 110.531 42.1816C110.275 41.7878 110.185 41.3881 110.155 40.3917C110.078 38.0171 110.925 34.4732 112.596 30.1894C112.924 29.3541 113.204 28.6202 113.222 28.5606C113.294 28.316 113.311 28.5069 113.276 29.2765ZM130.041 29.5152C129.975 31.138 129.778 34.0675 129.647 35.38C129.218 39.6937 128.651 42.0205 127.929 42.4381C127.732 42.5575 127.726 42.5575 127.571 42.4381C127.064 42.0623 126.861 41.233 126.921 39.7951C127.004 37.9336 127.422 35.9528 128.311 33.1725C128.728 31.8838 129.981 28.5188 130.053 28.5188C130.065 28.5188 130.059 28.9663 130.041 29.5152Z"/>
        <path d="M15.7509 0.459429C13.3286 0.536991 10.8108 0.751776 9.12836 1.02026C5.89464 1.52739 3.26947 2.59536 1.83757 3.97357C1.09775 4.68952 0.548851 5.63219 0.226672 6.74192C0.0297852 7.42208 0.0297852 7.43401 0.0297852 8.68096C0.0297852 9.87421 0.0417177 9.96371 0.202807 10.5305C0.495155 11.5806 1.15145 12.6306 1.74807 13.0125C1.96286 13.1557 2.12395 13.2094 2.41033 13.2273C3.61552 13.3287 5.01163 12.3443 5.01163 11.4016C5.01163 11.2524 4.90423 10.9422 4.68945 10.4947C3.92576 8.87785 4.03316 7.5235 5.00566 6.56293C5.84691 5.72765 7.38621 5.20859 9.88011 4.92817C10.7691 4.82674 12.9945 4.68355 13.0363 4.72532C13.0482 4.73725 12.8632 5.71572 12.6186 6.90301C11.7416 11.1689 11.1092 14.683 10.5841 18.227C10.5006 18.7819 10.3156 19.9393 10.1725 20.7925C9.40281 25.3507 9.09853 28.1191 9.29541 28.7933C9.4565 29.3422 9.88608 29.7896 10.5006 30.0402C10.8407 30.1775 11.9504 30.2312 12.4158 30.1357C12.9706 30.0223 13.5494 29.7061 13.8417 29.366C14.2236 28.9245 14.3131 28.6382 14.4145 27.5404C14.7307 24.074 15.4049 19.3427 16.3237 14.1401C16.8368 11.2345 18.0599 4.70742 18.1016 4.67162C18.1315 4.64179 22.3974 4.77305 23.4176 4.83271C23.9784 4.86851 25.1836 4.95204 26.1024 5.01766C27.0332 5.08926 28.0116 5.13102 28.3099 5.11312C29.4495 5.0475 30.0402 4.60003 30.243 3.65139C30.4996 2.4283 29.9447 1.56319 28.6441 1.15748C27.6238 0.84127 25.0106 0.572788 22.0453 0.477327C20.4046 0.423632 16.9859 0.411699 15.7509 0.459429Z"/>
    </symbol>

    <symbol id="moon" viewBox="0 0 384 512">
        <path d="M223.5 32C100 32 0 132.3 0 256S100 480 223.5 480c60.6 0 115.5-24.2 155.8-63.4c5-4.9 6.3-12.5 3.1-18.7s-10.1-9.7-17-8.5c-9.8 1.7-19.8 2.6-30.1 2.6c-96.9 0-175.5-78.8-175.5-176c0-65.8 36-123.1 89.3-153.3c6.1-3.5 9.2-10.5 7.7-17.3s-7.3-11.9-14.3-12.5c-6.3-.5-12.6-.8-19-.8z"/>
    </symbol>

    <symbol id="sun" viewBox="0 0 512 512">
        <path d="M361.5 1.2c5 2.1 8.6 6.6 9.6 11.9L391 121l107.9 19.8c5.3 1 9.8 4.6 11.9 9.6s1.5 10.7-1.6 15.2L446.9 256l62.3 90.3c3.1 4.5 3.7 10.2 1.6 15.2s-6.6 8.6-11.9 9.6L391 391 371.1 498.9c-1 5.3-4.6 9.8-9.6 11.9s-10.7 1.5-15.2-1.6L256 446.9l-90.3 62.3c-4.5 3.1-10.2 3.7-15.2 1.6s-8.6-6.6-9.6-11.9L121 391 13.1 371.1c-5.3-1-9.8-4.6-11.9-9.6s-1.5-10.7 1.6-15.2L65.1 256 2.8 165.7c-3.1-4.5-3.7-10.2-1.6-15.2s6.6-8.6 11.9-9.6L121 121 140.9 13.1c1-5.3 4.6-9.8 9.6-11.9s10.7-1.5 15.2 1.6L256 65.1 346.3 2.8c4.5-3.1 10.2-3.7 15.2-1.6zM352 256c0 53-43 96-96 96s-96-43-96-96s43-96 96-96s96 43 96 96zm32 0c0-70.7-57.3-128-128-128s-128 57.3-128 128s57.3 128 128 128s128-57.3 128-128z"/>
    </symbol>

    <symbol id="arrow-up" viewBox="0 0 15 9">
        <path d="M6.61753 0.366068C7.10562 -0.122023 7.89828 -0.122023 8.38637 0.366068L14.6339 6.61363C15.122 7.10172 15.122 7.89438 14.6339 8.38247C14.1458 8.87056 13.3532 8.87056 12.8651 8.38247L7.5 3.01738L2.13491 8.37856C1.64682 8.86665 0.854158 8.86665 0.366068 8.37856C-0.122023 7.89047 -0.122023 7.09781 0.366068 6.60972L6.61363 0.362164L6.61753 0.366068Z"/>
    </symbol>
    
    <symbol id="plus" viewBox="0 0 40 40">
        <path d="M23.0769 3.07692C23.0769 1.375 21.7019 0 20 0C18.2981 0 16.9231 1.375 16.9231 3.07692V16.9231H3.07692C1.375 16.9231 0 18.2981 0 20C0 21.7019 1.375 23.0769 3.07692 23.0769H16.9231V36.9231C16.9231 38.625 18.2981 40 20 40C21.7019 40 23.0769 38.625 23.0769 36.9231V23.0769H36.9231C38.625 23.0769 40 21.7019 40 20C40 18.2981 38.625 16.9231 36.9231 16.9231H23.0769V3.07692Z"/>
    </symbol>

    <symbol id="xmark" viewBox="0 0 8 8">
        <path d="M7.76324 1.36623C8.07559 1.05388 8.07559 0.546619 7.76324 0.234265C7.45088 -0.0780884 6.94362 -0.0780884 6.63127 0.234265L4 2.86803L1.36623 0.236764C1.05388 -0.0755896 0.546619 -0.0755896 0.234265 0.236764C-0.0780884 0.549118 -0.0780884 1.05638 0.234265 1.36873L2.86803 4L0.236764 6.63376C-0.0755896 6.94612 -0.0755896 7.45338 0.236764 7.76573C0.549118 8.07809 1.05638 8.07809 1.36873 7.76573L4 5.13197L6.63376 7.76323C6.94612 8.07559 7.45338 8.07559 7.76573 7.76323C8.07809 7.45088 8.07809 6.94362 7.76573 6.63127L5.13197 4L7.76324 1.36623Z"/>
    </symbol>

    <symbol id="trash" viewBox="0 0 448 512">
        <path d="M135.2 17.7L128 32H32C14.3 32 0 46.3 0 64S14.3 96 32 96H416c17.7 0 32-14.3 32-32s-14.3-32-32-32H320l-7.2-14.3C307.4 6.8 296.3 0 284.2 0H163.8c-12.1 0-23.2 6.8-28.6 17.7zM416 128H32L53.2 467c1.6 25.3 22.6 45 47.9 45H346.9c25.3 0 46.3-19.7 47.9-45L416 128z"/>
    </symbol>

    <symbol id="pen" viewBox="0 0 512 512">
        <path d="M362.7 19.3L314.3 67.7 444.3 197.7l48.4-48.4c25-25 25-65.5 0-90.5L453.3 19.3c-25-25-65.5-25-90.5 0zm-71 71L58.6 323.5c-10.4 10.4-18 23.3-22.2 37.4L1 481.2C-1.5 489.7 .8 498.8 7 505s15.3 8.5 23.7 6.1l120.3-35.4c14.1-4.2 27-11.8 37.4-22.2L421.7 220.3 291.7 90.3z"/>
    </symbol>

    <symbol id="check" viewBox="0 0 20 20">
        <path d="M18.3828 4.11719C18.8711 4.60547 18.8711 5.39844 18.3828 5.88672L8.38281 15.8867C7.89453 16.375 7.10156 16.375 6.61328 15.8867L1.61328 10.8867C1.125 10.3984 1.125 9.60547 1.61328 9.11719C2.10156 8.62891 2.89453 8.62891 3.38281 9.11719L7.5 13.2305L16.6172 4.11719C17.1055 3.62891 17.8984 3.62891 18.3867 4.11719H18.3828Z"/>
    </symbol>

</svg>